<?xml version="1.0" standalone="no"?><!DOCTYPE svg PUBLIC "-//W3C//DTD SVG 1.1//EN" "http://www.w3.org/Graphics/SVG/1.1/DTD/svg11.dtd"><svg t="1506674608603" class="icon" style="" viewBox="0 0 1024 1024" version="1.1" xmlns="http://www.w3.org/2000/svg" p-id="2100" xmlns:xlink="http://www.w3.org/1999/xlink" width="32" height="32"><defs><style type="text/css"></style></defs><path d="M232.448 870.4V153.6h308.736c175.104 0 221.184 80.896 221.184 169.472 0 84.48-19.456 145.408-118.272 167.424v1.024c111.104 14.848 147.456 96.256 147.456 169.984 0 128.512-38.912 208.896-234.496 208.896H232.448zM328.704 246.272v206.336h204.288c91.648 0 135.68-46.08 135.68-109.568 0-52.224-36.352-96.768-135.68-96.768H328.704z m0 299.52v229.888h223.744c99.84 0 145.408-43.008 145.408-118.784 0-57.344-47.616-111.104-150.016-111.104H328.704z" fill="#5f5f5f" p-id="2101"></path></svg>