<?xml version="1.0" standalone="no"?><!DOCTYPE svg PUBLIC "-//W3C//DTD SVG 1.1//EN" "http://www.w3.org/Graphics/SVG/1.1/DTD/svg11.dtd"><svg t="1505121343615" class="icon" style="" viewBox="0 0 1024 1024" version="1.1" xmlns="http://www.w3.org/2000/svg" p-id="1118" xmlns:xlink="http://www.w3.org/1999/xlink" width="32" height="32"><defs><style type="text/css"></style></defs><path d="M931.337874 847.456145l-27.954801 0-55.912672 0 0 55.910381 0 0 0 27.953655c0 15.451924-12.503267 27.954679-27.954801 27.954679s-27.955824-12.503778-27.955824-27.954679l0-27.953655 0-55.910381L232.441247 847.456145l-55.911648 0L176.529599 791.547811 176.529599 232.452189l0 0-55.911648 0L92.661103 232.452189c-15.43823 0-27.955824-12.502755-27.955824-27.954679 0-15.424294 12.517594-27.954679 27.955824-27.954679l27.955824 0 55.911648 0L176.528575 92.678796c0-15.451924 12.516571-27.954679 27.955824-27.954679s27.955824 12.502755 27.955824 27.954679l0 27.954679 0 55.909357 443.417767 0-51.462131 55.909357L232.441247 232.452189l0 518.336312L841.847103 114.681926l39.530915 39.529295L270.798381 791.547811l520.760372 0L791.558753 372.226606l55.911648-55.909357L847.470401 791.547811l55.912672 0 27.954801 0c15.452557 0 27.955824 12.530384 27.955824 27.954679C959.293698 834.954413 946.789407 847.456145 931.337874 847.456145z" p-id="1119" fill="#35a78e"></path></svg>