<?xml version="1.0" standalone="no"?><!DOCTYPE svg PUBLIC "-//W3C//DTD SVG 1.1//EN" "http://www.w3.org/Graphics/SVG/1.1/DTD/svg11.dtd"><svg t="1506675651069" class="icon" style="" viewBox="0 0 1024 1024" version="1.1" xmlns="http://www.w3.org/2000/svg" p-id="4874" xmlns:xlink="http://www.w3.org/1999/xlink" width="32" height="32"><defs><style type="text/css"></style></defs><path d="M907.508 802.039h-527.344c-15.82 0-26.367 10.547-26.367 26.367s10.547 26.367 26.367 26.367h527.344c15.82 0 26.367-10.547 26.367-26.367s-10.547-26.367-26.367-26.367v0zM933.875 617.469c0-15.82-10.547-26.367-26.367-26.367h-791.016c-15.82 0-26.367 10.547-26.367 26.367s10.547 26.367 26.367 26.367h791.016c15.82 0 26.367-10.547 26.367-26.367v0zM907.508 169.227h-791.016c-15.82 0-26.367 10.547-26.367 26.367s10.547 26.367 26.367 26.367h791.016c15.82 0 26.367-10.547 26.367-26.367s-10.547-26.367-26.367-26.367v0zM907.508 380.164h-527.344c-15.82 0-26.367 10.547-26.367 26.367s10.547 26.367 26.367 26.367h527.344c15.82 0 26.367-10.547 26.367-26.367s-10.547-26.367-26.367-26.367v0zM907.508 380.164z" p-id="4875"></path></svg>