<?xml version="1.0" standalone="no"?><!DOCTYPE svg PUBLIC "-//W3C//DTD SVG 1.1//EN" "http://www.w3.org/Graphics/SVG/1.1/DTD/svg11.dtd"><svg t="1509095053315" class="icon" style="" viewBox="0 0 1024 1024" version="1.1" xmlns="http://www.w3.org/2000/svg" p-id="52663" xmlns:xlink="http://www.w3.org/1999/xlink" width="16" height="16"><defs><style type="text/css"></style></defs><path d="M417.842015 336.50708c0 49.475831-40.099277 89.589434-89.587388 89.589434-49.490158 0-89.589434-40.113603-89.589434-89.589434 0-49.488111 40.099277-89.587388 89.589434-89.587388C377.743762 246.918669 417.842015 287.017946 417.842015 336.50708" p-id="52664" class="" fill="#d81e06"></path><path d="M720.203414 482.70172c-131.932822 0-238.902088 106.983593-238.902088 238.916415s106.969267 238.901065 238.902088 238.901065c131.934868 0 238.902088-106.968244 238.902088-238.901065S852.137259 482.70172 720.203414 482.70172M720.203414 900.793934c-98.978269 0-179.175799-80.226183-179.175799-179.175799 0-98.980315 80.19753-179.178869 179.175799-179.178869 98.980315 0 179.176822 80.198553 179.176822 179.178869C899.379213 820.566728 819.182706 900.793934 720.203414 900.793934" p-id="52665" class="" fill="#1296db"></path><path d="M597.515141 691.726338l245.405199 0 0 59.724243-245.405199 0 0-59.724243Z" p-id="52666" class="" fill="#1296db"></path><path d="M496.232386 721.618135c0-123.709533 100.293217-223.986377 223.971028-223.986377 24.350594 0 47.711652 4.01136 69.669756 11.199063-50.305733-91.673909-113.297392-172.338067-142.489248-172.338067-61.563124 0-201.514573 268.153296-259.431657 266.723737-35.462676-0.845251-58.793034-119.889531-101.662401-119.889531-42.986023 0-105.832374 177.339987-104.520495 226.771817 1.808182 71.856561 56.896848 71.856561 56.896848 71.856561l266.024819 0C499.295142 762.736625 496.232386 742.526327 496.232386 721.618135" p-id="52667" class="" fill="#1afa29"></path><path d="M884.330472 65.24805 137.996422 65.24805c-41.294498 0-74.772984 33.478486-74.772984 74.772984l0 686.609807c0 41.295522 33.478486 74.774007 74.772984 74.774007l425.252287 0c-19.539009-17.060561-36.190247-37.21253-49.343825-59.725266L167.858544 841.679581c-24.817222 0-44.911886-20.094664-44.911886-44.909839L122.946658 169.884179c0-24.816199 20.094664-44.909839 44.911886-44.909839l686.609807 0c24.819269 0 44.911886 20.093641 44.911886 44.909839l0 394.078287c37.065174 42.081421 59.725266 97.142457 59.725266 157.625994L959.105502 140.022057C959.105502 98.727559 925.625994 65.24805 884.330472 65.24805" p-id="52668" class="selected" fill="#13227a"></path></svg>