<?xml version="1.0" standalone="no"?><!DOCTYPE svg PUBLIC "-//W3C//DTD SVG 1.1//EN" "http://www.w3.org/Graphics/SVG/1.1/DTD/svg11.dtd"><svg t="1509094584033" class="icon" style="" viewBox="0 0 1024 1024" version="1.1" xmlns="http://www.w3.org/2000/svg" p-id="28479" xmlns:xlink="http://www.w3.org/1999/xlink" width="16" height="16"><defs><style type="text/css"></style></defs><path d="M305.408 630.8352c-6.7328 2.7648-11.9552 0-11.9552 0l-130.3296-85.1712v-89.4208l142.2336 86.912s3.2 1.536 5.0432 4.5824a14.0544 14.0544 0 0 1 1.8432 6.528v65.5104s-0.128 8.3456-6.8608 11.1616l0.0256-0.1024z" fill="#1296DB" p-id="28480"></path><path d="M112.9216 430.0288c4.0448-0.9728 5.6832 0.0768 5.6832 0.0768l51.4816 31.7184v88.9344l-58.0608-38.2208s-2.048-1.8688-2.432-2.5088c-0.384-0.6144-0.7424-3.4048-0.7424-3.4048v-71.2192c-0.0256 0.0256 0.9216-4.608 4.0704-5.376z" fill="#1296DB" p-id="28481"></path><path d="M436.096 300.6464c-3.3024-9.8816 4.096-14.4896 4.096-14.4896l60.544-24.3712s3.3536-2.9184 7.9616-2.944c3.712 0 5.5552 1.3056 5.5552 1.3056l233.856 89.472s3.9936 1.6896 6.0928 4.6336c2.0736 2.9696 2.048 7.0144 2.048 7.0144l0.256 424.9088s0.9728 0-1.6384 6.144c-0.896 2.0992-3.584 4.2496-3.584 4.2496l-100.3264 89.728 0.5376-478.336s0.3584-2.304-1.4592-5.8624c-1.4592-2.7648-5.6576-5.6576-5.6576-5.6576l-203.1104-89.5232c0.0256 0.0512-3.3792-0.8192-5.1712-6.272z" fill="#FB7E00" p-id="28482"></path><path d="M63.3344 551.7056l325.4528 202.368s6.1952 3.8656 13.0816 0.6144c5.4016-2.56 6.8608-11.136 6.8608-11.136l0.1536-195.6096s0-2.432-1.5872-5.7344c-1.5872-3.328-3.2768-4.0448-3.2768-4.0448l-336.384-205.5168s-5.2992-3.5584-5.2992-10.496c0-6.8608-4.5824-5.4528-4.5824-5.4528l440.4224-235.008s15.6672-7.6032 17.2544-7.6032c4.352 0 7.2192 2.304 7.2192 2.304L929.024 244.1728a17.92 17.92 0 0 1 4.8896 5.376c0.512 1.0496 0.9728 2.4576 1.3568 7.5008l-0.1792 385.024s-1.4336 4.9152-4.2752 8.1664a19.7632 19.7632 0 0 1-6.3488 4.7616l-92.16 78.5664 1.2544-409.4976a25.6 25.6 0 0 0-1.2544-6.4256 18.2272 18.2272 0 0 0-4.096-5.0944L520.448 179.0208a15.616 15.616 0 0 0-4.2752-0.9728l-4.864 0.4864-229.376 120.4736s-5.248 3.4048-5.248 11.8784c0 3.712 5.0944 8.1664 5.0944 8.1664l262.8096 141.312s1.4848 1.8944 2.2016 3.5072c1.4336 3.1232 1.3056 5.248 1.3056 5.248l-0.2816 485.3248s-1.8688 13.4912-17.6896 10.3424L70.2464 668.16s-2.0736-0.64-4.7616-4.352c-2.688-3.712-2.176-7.1424-2.176-7.1424v-104.9088l0.0256-0.0512z" fill="#1296DB" p-id="28483"></path></svg>