<?xml version="1.0" standalone="no"?><!DOCTYPE svg PUBLIC "-//W3C//DTD SVG 1.1//EN" "http://www.w3.org/Graphics/SVG/1.1/DTD/svg11.dtd"><svg t="1509094941112" class="icon" style="" viewBox="0 0 1024 1024" version="1.1" xmlns="http://www.w3.org/2000/svg" p-id="45527" xmlns:xlink="http://www.w3.org/1999/xlink" width="16" height="16"><defs><style type="text/css"></style></defs><path d="M246.3744 339.30752c0 47.45216 37.40672 85.9136 83.54816 85.9136s83.54816-38.46656 83.54816-85.9136c0-47.44704-37.40672-85.9136-83.54816-85.9136S246.3744 291.86048 246.3744 339.30752z" fill="#29CB88" p-id="45528"></path><path d="M571.42784 912.53248H131.93728V121.56928h769.11616v480.23552h-54.912V178.08896H186.89536V856.0128h384.53248v56.51968z" fill="#29CB88" p-id="45529" class="selected"></path><path d="M814.67904 827.78112h136.45312l-184.94976-258.95936-184.95488 258.95936h123.57632v112.98816h109.8752v-112.98816zM717.37856 522.54208l-45.2096-139.2128-188.85632 274.6368-94.42816-98.64192-157.39392 211.9424h312.22272l173.66528-248.72448z" fill="#29CB88" p-id="45530" class=""></path></svg>