<?xml version="1.0" standalone="no"?><!DOCTYPE svg PUBLIC "-//W3C//DTD SVG 1.1//EN" "http://www.w3.org/Graphics/SVG/1.1/DTD/svg11.dtd"><svg t="1508900412705" class="icon" style="" viewBox="0 0 1026 1024" version="1.1" xmlns="http://www.w3.org/2000/svg" p-id="5902" xmlns:xlink="http://www.w3.org/1999/xlink" width="16.03125" height="16"><defs><style type="text/css"></style></defs><path d="M78.657454 914.01198l712.397123 0c41.36306 0 75.035974-33.658587 75.035974-75.021647l0-52.749388 83.232656 0c42.158169 0 76.488045-34.31248 76.488045-76.487022L1025.811252 191.936427c0-42.173518-34.329876-76.487022-76.488045-76.487022L223.864604 115.449405c-42.173518 0-76.478835 34.313503-76.478835 76.487022l0 51.28299L78.657454 243.219417c-41.36306 0-75.013461 33.658587-75.013461 75.021647l0 520.750291C3.643993 880.353392 37.294394 914.01198 78.657454 914.01198M791.054577 882.069477 78.657454 882.069477c-23.746844 0-43.070958-19.340487-43.070958-43.079144l0-94.049003L242.424308 538.094308l221.156936 252.733095 161.279197-96.763834 199.960171 171.347506C816.913525 875.486548 804.802696 882.069477 791.054577 882.069477M179.327248 191.936427c0-24.564465 19.97903-44.544519 44.536332-44.544519l725.458603 0c24.550139 0 44.544519 19.980054 44.544519 44.544519l0 517.817496c0 24.549116-19.99438 44.544519-44.544519 44.544519l-83.232656 0L866.089527 318.240041c0-41.36306-33.672914-75.021647-75.035974-75.021647L179.327248 243.218394 179.327248 191.936427zM78.657454 275.16192l712.397123 0c23.762193 0 43.093471 19.325138 43.093471 43.079144l0 513.137916L628.167766 654.820799 470.03012 749.697657l-226.038106-258.331603L35.586496 699.771571 35.586496 318.240041C35.586496 294.487058 54.910611 275.16192 78.657454 275.16192" p-id="5903" fill="#35a78e"></path><path d="M642.484843 562.643424c52.849672 0 95.828532-42.985 95.828532-95.827509 0-52.842509-42.977837-95.827509-95.828532-95.827509s-95.827509 42.985-95.827509 95.827509C546.658358 519.658424 589.635171 562.643424 642.484843 562.643424M642.484843 402.931932c35.234479 0 63.886029 28.65155 63.886029 63.885006 0 35.218106-28.65155 63.885006-63.886029 63.885006-35.233456 0-63.885006-28.6669-63.885006-63.885006C578.599837 431.583482 607.251388 402.931932 642.484843 402.931932" p-id="5904" fill="#35a78e"></path></svg>