<?xml version="1.0" standalone="no"?><!DOCTYPE svg PUBLIC "-//W3C//DTD SVG 1.1//EN" "http://www.w3.org/Graphics/SVG/1.1/DTD/svg11.dtd"><svg t="1508900466635" class="icon" style="" viewBox="0 0 1024 1024" version="1.1" xmlns="http://www.w3.org/2000/svg" p-id="7594" xmlns:xlink="http://www.w3.org/1999/xlink" width="16" height="16"><defs><style type="text/css"></style></defs><path d="M917.216 999.232H106.784a41.92 41.92 0 0 1-41.92-41.92V258.656c0-23.136 18.752-41.92 41.92-41.92h810.432c23.136 0 41.92 18.784 41.92 41.92v698.656a41.92 41.92 0 0 1-41.92 41.92z m-600.832-41.92h600.832V594.016H316.384v363.296z m-209.6 0h167.68V594.016h-167.68v363.296z m41.92-698.624a41.92 41.92 0 1 0 0.032 83.872 41.92 41.92 0 0 0-0.032-83.872z m125.76 0a41.92 41.92 0 1 0 0.032 83.872 41.92 41.92 0 0 0-0.032-83.872z m125.76 0a41.92 41.92 0 1 0 0.032 83.872 41.92 41.92 0 0 0-0.032-83.872z m475.072 125.76H106.784v167.68h810.432v-167.68h-41.92z" fill="#fff" p-id="7595"></path></svg>