<?xml version="1.0" standalone="no"?><!DOCTYPE svg PUBLIC "-//W3C//DTD SVG 1.1//EN" "http://www.w3.org/Graphics/SVG/1.1/DTD/svg11.dtd"><svg t="1509094662211" class="icon" style="" viewBox="0 0 1263 1024" version="1.1" xmlns="http://www.w3.org/2000/svg" p-id="32178" xmlns:xlink="http://www.w3.org/1999/xlink" width="19.734375" height="16"><defs><style type="text/css"></style></defs><path d="M1140.139747 1011.556456H123.398481c-58.069873 0-104.733165-46.663291-104.733165-104.733165V117.176709c0-58.069873 46.663291-104.733165 104.733165-104.733165h1016.741266c58.069873 0 104.733165 46.663291 104.733164 104.733165v789.646582c0 57.551392-46.663291 104.733165-104.733164 104.733165z" fill="#8a8a8a" p-id="32179" class="selected"></path><path d="M940.006076 376.935696c-18.146835-30.071899-27.997975-47.700253-34.219747-58.069873-4.666329-8.295696-14.517468-12.962025-23.850126-11.406582-43.033924 7.258734-160.210633 14.517468-193.393418-109.399494-2.592405-9.332658-11.406582-16.072911-21.257722-16.072912h-67.921012c-10.888101 0-20.220759 6.740253-23.331646 17.109874-12.443544 40.96-57.032911 137.397468-191.837975 108.362532-9.851139-2.073924-19.702278 2.073924-24.887088 10.36962-9.851139 16.591392-25.40557 42.515443-35.77519 60.143797-5.703291 9.332658-4.147848 21.257722 4.147848 28.516456 31.108861 29.034937 95.400506 109.399494-1.555443 212.577215-7.258734 7.777215-8.295696 18.665316-3.110886 27.997975l36.812152 60.662278c5.18481 8.814177 16.072911 12.962025 25.92405 10.369621 40.441519-10.888101 144.656203-25.40557 189.764051 107.84405 3.110886 9.332658 11.925063 16.072911 21.776203 16.072912h70.513417c9.851139 0 18.665316-6.221772 21.776203-15.554431 12.962025-39.404557 58.588354-138.43443 190.801012-109.399493 9.851139 2.073924 19.702278-2.073924 24.887089-10.888102 9.332658-16.072911 24.368608-41.478481 33.701266-57.551392 5.18481-8.814177 4.147848-19.702278-2.592405-26.961013-28.516456-31.627342-91.771139-120.806076 0.518481-216.725063 7.258734-7.777215 8.814177-19.183797 3.110886-27.997975z m-309.014684 256.648101c-66.884051 0-121.324557-54.440506-121.324557-121.324556 0-66.884051 54.440506-121.324557 121.324557-121.324557 66.884051 0 121.324557 54.440506 121.324557 121.324557 0 66.884051-54.440506 121.324557-121.324557 121.324556z" fill="#FFFFFF" p-id="32180"></path></svg>