<?xml version="1.0" standalone="no"?><!DOCTYPE svg PUBLIC "-//W3C//DTD SVG 1.1//EN" "http://www.w3.org/Graphics/SVG/1.1/DTD/svg11.dtd"><svg t="1508900274333" class="icon" style="" viewBox="0 0 1024 1024" version="1.1" xmlns="http://www.w3.org/2000/svg" p-id="1987" xmlns:xlink="http://www.w3.org/1999/xlink" width="16" height="16"><defs><style type="text/css"></style></defs><path d="M984.510102 1018.303254 42.881135 1018.303254c-16.954137 0-30.699186-13.745049-30.699186-30.699186L12.181949 661.184741c0-16.954137 13.745049-30.699186 30.699186-30.699186l941.628968 0c16.954137 0 30.699186 13.745049 30.699186 30.699186l0 326.418304C1015.209288 1004.558206 1001.464239 1018.303254 984.510102 1018.303254zM73.580321 956.904882l880.230596 0L953.810916 691.883927 73.580321 691.883927 73.580321 956.904882zM984.510102 607.975888 552.183699 607.975888c-16.954137 0-30.699186-13.745049-30.699186-30.699186L521.484513 47.231721c0-16.954137 13.745049-30.699186 30.699186-30.699186l432.325379 0c16.954137 0 30.699186 13.745049 30.699186 30.699186l0 195.574281c0 16.954137-13.745049 30.699186-30.699186 30.699186s-30.699186-13.745049-30.699186-30.699186L953.809893 77.930907 582.882885 77.930907l0 468.64661 370.927007 0 0-61.35437c0-16.954137 13.745049-30.699186 30.699186-30.699186s30.699186 13.745049 30.699186 30.699186l0 92.053556C1015.209288 594.231863 1001.464239 607.975888 984.510102 607.975888zM472.369909 607.975888 42.881135 607.975888c-16.954137 0-30.699186-13.745049-30.699186-30.699186L12.181949 351.139336c0-16.954137 13.745049-30.699186 30.699186-30.699186l429.488775 0c16.954137 0 30.699186 13.745049 30.699186 30.699186l0 226.137367C503.069095 594.231863 489.32507 607.975888 472.369909 607.975888zM73.580321 546.577516l368.090403 0L441.670723 381.838521 73.580321 381.838521 73.580321 546.577516zM472.369909 304.069297 42.881135 304.069297c-16.954137 0-30.699186-13.745049-30.699186-30.699186L12.181949 47.231721c0-16.954137 13.745049-30.699186 30.699186-30.699186l429.488775 0c16.954137 0 30.699186 13.745049 30.699186 30.699186l0 226.137367C503.069095 290.324248 489.32507 304.069297 472.369909 304.069297zM73.580321 242.670925l368.090403 0L441.670723 77.930907 73.580321 77.930907 73.580321 242.670925z" p-id="1988" fill="#35a78e"></path></svg>