<?xml version="1.0" standalone="no"?><!DOCTYPE svg PUBLIC "-//W3C//DTD SVG 1.1//EN" "http://www.w3.org/Graphics/SVG/1.1/DTD/svg11.dtd"><svg t="1509095004268" class="icon" style="" viewBox="0 0 1024 1024" version="1.1" xmlns="http://www.w3.org/2000/svg" p-id="49964" xmlns:xlink="http://www.w3.org/1999/xlink" width="16" height="16"><defs><style type="text/css"></style></defs><path d="M901.858684 127.400598 901.858684 69.761853 854.943165 69.761853 854.943165 127.400598 797.30442 127.400598 797.30442 174.316118 854.943165 174.316118 854.943165 231.956909 901.858684 231.956909 901.858684 174.316118 959.498452 174.316118 959.498452 127.400598Z" fill="#1296db" p-id="49965"></path><path d="M806.127366 745.43661 645.280004 278.981922 457.089901 666.62259 427.064051 666.086377 317.153802 528.294105 154.697803 744.900398Z" fill="#1296db" p-id="49966"></path><path d="M305.894364 344.92889m-67.555605 0a66.017 66.017 0 1 0 135.111211 0 66.017 66.017 0 1 0-135.111211 0Z" fill="#1296db" p-id="49967"></path><path d="M856.444355 787.17113c0 17.740036-14.431687 32.1707-32.1707 32.1707L142.25133 819.34183c-17.739013 0-32.1707-14.431687-32.1707-32.1707L110.080629 201.661929c0-17.739013 14.431687-32.1707 32.1707-32.1707L708.458929 169.491229 708.458929 126.59628 142.25133 126.59628c-41.391712 0-75.065649 33.673937-75.065649 75.064626L67.18568 787.17113c0 41.390689 33.673937 75.065649 75.065649 75.065649l682.022325 0c41.390689 0 75.065649-33.67496 75.065649-75.065649L899.339304 322.838779l-42.894949 0L856.444355 787.17113z" fill="#1296db" p-id="49968"></path></svg>