<?xml version="1.0" standalone="no"?><!DOCTYPE svg PUBLIC "-//W3C//DTD SVG 1.1//EN" "http://www.w3.org/Graphics/SVG/1.1/DTD/svg11.dtd"><svg t="1508900442227" class="icon" style="" viewBox="0 0 1024 1024" version="1.1" xmlns="http://www.w3.org/2000/svg" p-id="6781" xmlns:xlink="http://www.w3.org/1999/xlink" width="16" height="16"><defs><style type="text/css"></style></defs><path d="M899.9 697.2l-15.6-1.9c-5.5-0.7-135-15.1-208.7 58.5-73.7 73.7-59.2 203.2-58.5 208.7l1.9 15.6 15.6 1.9c1.6 0.2 13.8 1.6 32.2 1.6 44.3 0 124.4-8 176.4-60.1 73.7-73.7 59.2-203.2 58.5-208.7l-1.8-15.6z m-85 196c-46.2 46.2-125.2 49.2-159.2 48.1-1.1-34 1.8-112.8 48.2-159.2 46.2-46.1 125.1-49.1 159.2-48 1.1 34-1.8 112.8-48.2 159.1zM133.8 695.4l-15.6 1.9-1.9 15.6c-0.7 5.5-15.1 135 58.5 208.7 52.1 52.1 132.1 60.1 176.4 60.1 18.4 0 30.6-1.4 32.2-1.6l15.6-1.9 1.9-15.6c0.7-5.5 15.1-135-58.5-208.7-73.6-73.6-203.2-59.2-208.6-58.5z m228.5 246c-34 1.1-112.8-1.8-159.2-48.2C156.9 847 153.9 768.1 155 734c34-1.1 112.8 1.8 159.2 48.2 46.2 46.2 49.2 125.1 48.1 159.2z" p-id="6782" fill="#fff"></path><path d="M933.2 231.5l-1.9-15.6-15.6-1.9c-1.5-0.2-37.6-4.4-87.9-1.2-41.4 2.6-100 10.8-154.9 34.7-22-55.7-57.5-102.9-85-134-33.4-37.8-61.8-60.3-63-61.3l-12.4-9.7-12.4 9.7c-1.2 0.9-29.6 23.5-63 61.3-27.5 31.1-63 78.3-85 134-54.9-23.9-113.4-32.1-154.9-34.7-50.3-3.1-86.4 1.1-87.9 1.2l-15.6 1.9-1.7 15.6c-0.3 2.2-6.3 54.1 1.7 120.4 4.7 39.2 13.4 75.4 25.7 107.6 15.7 41 37.5 75.5 64.7 102.8 27.2 27.2 61.8 49 102.8 64.7 32.2 12.3 68.4 21 107.6 25.7 39.2 4.7 73.3 4.5 95.1 3.6v309.9c0 9.8 7.9 17.7 17.7 17.7S525 976 525 966.2V655.7c8.7 0.6 21 1.1 35.8 1.1 19.5 0 43.5-1 69.8-4.1 39.2-4.7 75.4-13.4 107.6-25.7 41-15.7 75.5-37.5 102.8-64.7 27.2-27.2 49-61.8 64.7-102.8 12.3-32.2 21-68.4 25.7-107.6 8-66.3 2-118.2 1.8-120.4z m-41.6 116.6c-4.4 35.8-12.2 68.7-23.4 97.6-13.7 35.5-32.3 65.2-55.5 88.3-23.1 23.1-52.9 41.8-88.3 55.5-29 11.2-61.8 19-97.6 23.4-52.8 6.4-96.7 3.2-108.6 2.1-3-2.3-6.7-3.7-10.8-3.7-4.6 0-8.7 1.7-11.8 4.6-19.2 1.2-55.4 2.1-97.1-3-35.8-4.4-68.7-12.2-97.6-23.4-35.5-13.7-65.2-32.3-88.3-55.5-23.1-23.1-41.8-52.9-55.5-88.3-11.2-29-19-61.8-23.4-97.6-5-40.7-4.2-76-3.1-95.6 39-2.2 141-2.9 224 40.3l21.2 11L383 281c28-89 100.7-160.8 129.9-186.9 29.2 26 101.8 97.6 129.8 186.9l7.2 22.8 21.2-11c82.7-43.1 184.9-42.5 224-40.3 0.7 19.6 1.5 54.9-3.5 95.6z" p-id="6783" fill="#fff"></path></svg>