<?xml version="1.0" standalone="no"?><!DOCTYPE svg PUBLIC "-//W3C//DTD SVG 1.1//EN" "http://www.w3.org/Graphics/SVG/1.1/DTD/svg11.dtd"><svg t="1507801395074" class="icon" style="" viewBox="0 0 1024 1024" version="1.1" xmlns="http://www.w3.org/2000/svg" p-id="4815" xmlns:xlink="http://www.w3.org/1999/xlink" width="32" height="32"><defs><style type="text/css"></style></defs><path d="M238 401.4c9.9 16.1 27.8 19.9 42.5 9.6l21-14.8c14.6-10.3 19.2-27.8 8.1-41.8 0 0-39.5-50.2-73.3-100.3-39.7-58.8-86.1-136.6-110.8-165.8-24.7-29.2-29.6-6.4-25.1 14.8 5.5 25.7 20.6 63.1 56.4 140.6 38.3 82.5 81.2 157.7 81.2 157.7z m58.1 27.1c-13.6 11.7-15.6 32.8-4.7 46.9l33.8 43.7c5.1 6.7 12.8 11 21.2 11.8 8.4 0.8 16.7-2 22.9-7.7l25.1-22.4c6.4-5.6 10.1-13.6 10.4-22.1 0.3-8.5-3-16.7-8.9-22.7l-37.6-38.3c-12.5-12.8-33.8-13.6-47.3-1.9l-14.9 12.7z m71.1 143.9c11.8 39.2 44.2 80.8 108.6 85 88.8 5.8 162.7-76.1 162.7-76.1s-69.2 21.7-104.7 4.3c-18.9-9.3-24.8-38.3-45.5-60.8-13.9-15.1-35-22.3-47.5-22.2-4.5 0-9 0.7-13.2 2.3l-59.1 51.3c-3.9 3.6-2.2 13.4-1.3 16.2z m0 0" p-id="4816" fill="#8a8a8a"></path><path d="M880.7 280.4c-50.7-40.3-155.7-31-256.1 12.1-95.2 40.9-161.7 86.9-211.6 125.7l10.4 10.7c9.5 9.7 16 21.9 18.7 35.3 22.2 0.5 53 11.1 74.6 34.5 12.1 13.1 19.9 27 26.1 38.1 2.9 5.2 6.8 12.1 9.1 14.7 2.3 0.9 7.7 2.3 18.2 2.3 26.5 0 56.5-9.2 56.8-9.3l134.2-41.6-94 104.2c-3.3 3.6-81.6 89.1-182.3 89.1-3.8 0-7.6-0.1-11.5-0.4-69.7-4.5-123.2-46.5-143.1-112.3-1.7-5.7-2.6-11.6-2.7-17.6-13.1-4.3-24.5-12.5-32.9-23.4l-9.3-11.9c-37.5 37.8-74.9 81.1-103.7 127-41.7 66.2-103.9 173.9-26 253.4S384 892 384 892s34.2 35.8 86.5 34.5c70.9-1.7 242.2-38 361.6-226.3C951.6 511.9 951.7 337 880.7 280.4zM308.9 822.9c-28.7 32-69.3 42.4-90.7 23.2-21.3-19.2-15.3-60.6 13.4-92.6 28.7-32 69.3-42.4 90.7-23.2 21.3 19.1 15.4 60.6-13.4 92.6z m316.5-1.9c-28.6 15.9-62.5 14.5-75.8-3.2-13.3-17.7-0.9-45 27.7-60.9 28.6-15.9 62.5-14.5 75.8 3.2 13.3 17.7 0.9 45-27.7 60.9z m179.4-472.6c16-12.5 36.7-14.6 46.2-4.7 9.6 9.9 4.4 28.1-11.6 40.6s-36.7 14.6-46.3 4.7c-9.5-9.9-4.3-28.1 11.7-40.6zM787 679.5c-21.4 18.6-50.4 23.3-64.8 10.7-14.4-12.7-8.7-38 12.7-56.5 21.5-18.6 50.4-23.3 64.8-10.7 14.5 12.6 8.7 37.9-12.7 56.5z m60.1-161.8c-19.9 15.1-45.7 17.7-57.6 5.7-11.9-12-5.5-33.9 14.4-49 19.9-15.1 45.7-17.7 57.6-5.7 11.9 11.9 5.5 33.9-14.4 49z m0 0" p-id="4817" fill="#8a8a8a"></path></svg>