<?xml version="1.0" standalone="no"?><!DOCTYPE svg PUBLIC "-//W3C//DTD SVG 1.1//EN" "http://www.w3.org/Graphics/SVG/1.1/DTD/svg11.dtd"><svg t="1507802252343" class="icon" style="" viewBox="0 0 1134 1024" version="1.1" xmlns="http://www.w3.org/2000/svg" p-id="8401" xmlns:xlink="http://www.w3.org/1999/xlink" width="35.4375" height="32"><defs><style type="text/css"></style></defs><path d="M1079.794162 0H54.908541A54.853189 54.853189 0 0 0 0 54.853189v731.431207a54.880865 54.880865 0 0 0 54.908541 54.85319h347.726414v91.421982l-73.211387 73.14681V1024H805.26991v-18.284396l-73.202162-73.146811v-91.421982h347.726414A54.899315 54.899315 0 0 0 1134.702703 786.284396V54.853189A54.880865 54.880865 0 0 0 1079.794162 0z m-18.302847 694.853189H73.211387V73.146811h988.279928v621.706378z" p-id="8402" fill="#8a8a8a"></path><path d="M480.246775 356.232072l51.587459 100.859387s83.820396-204.975279 215.999424-273.297297c-3.219604 48.801441-16.116468 91.099099 6.457657 143.157045-58.035892 13.007568-177.318054 159.421117-215.999423 230.99964-54.807063-68.322018-119.282162-120.379964-164.421189-136.644036z" p-id="8403" fill="#8a8a8a"></path></svg>