<?xml version="1.0" standalone="no"?><!DOCTYPE svg PUBLIC "-//W3C//DTD SVG 1.1//EN" "http://www.w3.org/Graphics/SVG/1.1/DTD/svg11.dtd"><svg t="1507802319675" class="icon" style="" viewBox="0 0 1024 1024" version="1.1" xmlns="http://www.w3.org/2000/svg" p-id="10218" xmlns:xlink="http://www.w3.org/1999/xlink" width="32" height="32"><defs><style type="text/css"></style></defs><path d="M427.64288 148.1728c4.79232 17.01888 7.20896 34.73408 7.20896 53.12512 0 28.0576-5.3248 54.29248-16.01536 78.68416-10.67008 24.41216-25.16992 45.75232-43.47904 64.04096-18.30912 18.30912-39.64928 32.64512-64.04096 43.008-24.39168 10.36288-50.33984 15.5648-77.78304 15.5648-28.0576 0-54.29248-5.18144-78.68416-15.5648-24.39168-10.36288-45.75232-24.69888-64.04096-43.008-18.30912-18.28864-32.78848-39.64928-43.45856-64.04096C36.6592 255.5904 31.31392 229.376 31.31392 201.3184c0-3.072 0.08192-6.10304 0.2048-9.13408-9.17504 11.264-16.42496 23.59296-21.64736 36.9664C4.096 243.9168 1.20832 259.01056 1.20832 274.432l0 501.16608c0 12.20608 3.54304 21.52448 10.60864 27.93472s16.05632 9.64608 26.97216 9.64608l22.17984 0c0-41.12384 10.4448-71.82336 31.31392-92.03712 20.8896-20.23424 50.91328-30.35136 90.112-30.35136 41.12384 0 71.31136 10.91584 90.60352 32.78848 19.27168 21.83168 28.91776 51.712 28.91776 89.62048l263.10656 0c10.28096 0 19.12832-3.54304 26.5216-10.62912 7.3728-7.04512 11.07968-16.03584 11.07968-26.95168L600.6784 148.1728 427.64288 148.1728zM181.43232 752.45568c-17.34656 0-31.96928 6.10304-43.84768 18.30912-11.89888 12.22656-17.83808 26.99264-17.83808 44.35968 0 16.67072 5.9392 31.15008 17.83808 43.35616 11.8784 12.20608 26.50112 18.3296 43.84768 18.3296s31.96928-6.12352 43.84768-18.3296c11.89888-12.22656 17.83808-26.68544 17.83808-43.35616 0-17.36704-5.9392-32.13312-17.83808-44.35968C213.38112 758.55872 198.77888 752.45568 181.43232 752.45568zM844.4928 753.41824c-17.34656 0-31.98976 6.10304-43.86816 18.3296-11.8784 12.20608-17.8176 26.66496-17.8176 43.35616 0 17.34656 5.9392 32.13312 17.8176 44.3392s26.5216 18.3296 43.86816 18.3296c16.6912 0 31.15008-6.12352 43.37664-18.3296 12.20608-12.20608 18.30912-26.99264 18.30912-44.3392 0-16.6912-6.10304-31.15008-18.30912-43.35616C875.66336 759.52128 861.20448 753.41824 844.4928 753.41824zM1016.5248 585.23648c-4.79232-36.27008-13.312-73.40032-25.51808-111.3088-12.22656-37.90848-30.5152-73.56416-54.94784-106.96704-13.49632-18.6368-30.208-34.69312-50.11456-48.18944-19.92704-13.49632-41.12384-24.41216-63.61088-32.768-22.48704-8.35584-45.28128-14.29504-68.42368-17.83808-23.12192-3.52256-45.30176-4.34176-66.49856-2.41664-7.0656 0.63488-13.0048 5.61152-17.8176 14.92992-4.8128 9.3184-7.22944 17.5104-7.22944 24.576l0 463.5648 0 0.96256c0 11.5712 4.15744 21.52448 12.51328 29.88032s18.30912 12.51328 29.88032 12.51328l17.34656 0c0-16.03584 3.05152-31.31392 9.15456-45.75232 6.10304-14.45888 14.45888-27.15648 25.06752-38.07232s22.95808-19.59936 37.10976-26.03008 29.53216-9.64608 46.26432-9.64608c16.6912 0 32.60416 2.2528 47.7184 6.73792 15.07328 4.52608 28.2624 11.5712 39.50592 21.1968 11.264 9.64608 20.23424 22.17984 26.97216 37.60128 6.7584 15.42144 10.11712 34.05824 10.11712 55.88992L1003.52 814.10048c3.85024 0 6.92224-1.9456 9.15456-5.77536 2.23232-3.85024 4.15744-8.51968 5.77536-13.98784s2.74432-10.91584 3.3792-16.384 0.96256-10.11712 0.96256-13.98784c0-19.90656 0.16384-45.62944 0.47104-77.1072S1021.35808 621.568 1016.5248 585.23648zM940.87168 573.68576c-5.79584 0.32768-12.51328 0.47104-20.23424 0.47104l-177.33632 0c-4.5056 0-8.97024-2.23232-13.49632-6.73792-4.48512-4.5056-6.73792-8.35584-6.73792-11.5712l0-0.96256c-0.63488-31.47776-0.96256-60.06784-0.96256-85.77024l0-87.69536c0-7.0656 2.90816-13.66016 8.68352-19.7632s12.84096-9.15456 21.1968-9.15456c0.63488 0 5.46816-0.32768 14.45888-0.96256s20.0704-0.16384 33.23904 1.45408c13.18912 1.59744 27.15648 5.14048 41.92256 10.60864 14.80704 5.46816 28.59008 14.29504 41.43104 26.50112 19.92704 20.56192 34.05824 45.4656 42.3936 74.69056 8.35584 29.24544 16.0768 59.5968 23.1424 91.07456 0 1.29024 0.18432 2.2528 0.49152 2.90816s0.47104 1.59744 0.47104 2.90816C949.5552 569.36448 946.66752 573.35808 940.87168 573.68576zM115.73248 90.07104C100.7616 106.22976 89.84576 124.17024 82.98496 143.89248 76.10368 163.6352 73.05216 183.64416 73.80992 203.93984c0.77824 20.2752 5.40672 39.91552 13.9264 58.90048 8.4992 18.98496 20.64384 35.77856 36.4544 50.42176 16.13824 14.9504 33.9968 25.96864 53.5552 33.01376 19.57888 7.04512 39.50592 10.17856 59.8016 9.40032s40.01792-5.3248 59.1872-13.68064c19.1488-8.33536 36.20864-20.60288 51.17952-36.74112 14.6432-15.79008 25.41568-33.54624 32.27648-53.30944 6.88128-19.72224 9.9328-39.7312 9.15456-60.02688-0.77824-20.29568-5.3248-40.01792-13.68064-59.16672-8.33536-19.16928-20.5824-36.22912-36.74112-51.17952-15.79008-14.6432-33.56672-25.3952-53.28896-32.256-19.74272-6.88128-39.75168-9.9328-60.04736-9.15456C205.312 40.96 185.58976 45.50656 166.42048 53.84192 147.2512 62.21824 130.37568 74.26048 115.73248 90.07104zM145.83808 156.16C151.2448 150.3232 157.88032 147.21024 165.7856 146.78016c7.8848-0.4096 14.7456 2.08896 20.5824 7.49568l42.0864 38.99392 58.34752-62.95552c5.40672-5.8368 12.10368-8.9088 20.11136-9.216C314.92096 120.832 321.8432 123.37152 327.68 128.79872s8.86784 12.06272 9.05216 19.968c0.18432 7.90528-2.41664 14.7456-7.82336 20.5824l-78.0288 84.1728c-5.40672 5.8368-11.9808 8.9088-19.78368 9.19552s-14.60224-2.2528-20.43904-7.68l-63.2832-58.65472C141.53728 190.95552 138.46528 184.38144 138.17856 176.59904S140.43136 161.9968 145.83808 156.16z" p-id="10219" fill="#8a8a8a"></path></svg>