<?xml version="1.0" standalone="no"?><!DOCTYPE svg PUBLIC "-//W3C//DTD SVG 1.1//EN" "http://www.w3.org/Graphics/SVG/1.1/DTD/svg11.dtd"><svg t="1507801111695" class="icon" style="" viewBox="0 0 1024 1024" version="1.1" xmlns="http://www.w3.org/2000/svg" p-id="3486" xmlns:xlink="http://www.w3.org/1999/xlink" width="32" height="32"><defs><style type="text/css"></style></defs><path d="M0 131.150769l0 693.523692c0 53.208615 18.510769 71.68 71.68 71.68L550.596923 896.354462c-35.091692-47.655385-55.532308-106.732308-55.532308-170.929231 0-160.295385 129.536-290.264615 289.831385-290.264615l17.329231 0.433231L802.225231 131.150769c0-53.563077-18.865231-72.073846-72.073846-72.073846L71.68 59.076923C18.510769 59.076923 0 77.587692 0 131.150769zM68.135385 409.6c0-4.726154 3.938462-8.664615 8.664615-8.664615l187.904 0c4.686769 0 8.231385 3.938462 8.231385 8.664615l0 16.935385c0 4.726154-3.544615 8.664615-8.231385 8.664615L76.8 435.2c-4.726154 0-8.664615-3.938462-8.664615-8.664615L68.135385 409.6zM68.135385 738.461538c0-7.089231 6.695385-12.996923 14.178462-12.996923l357.612308 0c7.876923 0 14.139077 5.907692 14.139077 12.996923l0 25.6c0 7.089231-6.262154 12.996923-14.139077 12.996923L82.313846 777.058462c-7.483077 0-14.178462-5.907692-14.178462-12.996923L68.135385 738.461538zM68.135385 601.757538c0-7.089231 6.695385-12.957538 14.178462-12.957538l374.547692 0c7.876923 0 14.178462 5.868308 14.178462 12.957538l0 25.6c0 7.089231-6.301538 12.603077-14.178462 12.603077L82.313846 639.960615c-7.483077 0-14.178462-5.553231-14.178462-12.603077L68.135385 601.757538zM68.135385 499.003077c0-7.089231 6.695385-12.603077 14.178462-12.603077l443.076923 0c7.876923 0 14.178462 5.553231 14.178462 12.603077l0 25.993846c0 7.089231-6.301538 12.603077-14.178462 12.603077L82.313846 537.6c-7.483077 0-14.178462-5.553231-14.178462-12.603077L68.135385 499.003077zM68.135385 289.870769c0-4.726154 3.938462-8.664615 8.664615-8.664615l187.904 0c4.686769 0 8.231385 3.938462 8.231385 8.664615l0 16.935385c0 4.726154-3.544615 8.664615-8.231385 8.664615L76.8 315.470769c-4.726154 0-8.664615-3.938462-8.664615-8.664615L68.135385 289.870769zM68.135385 187.076923c0-4.726154 3.938462-8.270769 8.664615-8.270769l187.904 0c4.686769 0 8.231385 3.544615 8.231385 8.270769l0 17.329231c0 4.726154-3.544615 8.664615-8.231385 8.664615L76.8 213.070769c-4.726154 0-8.664615-3.938462-8.664615-8.664615L68.135385 187.076923zM324.135385 178.806154 733.735385 178.806154l0 256.393846L324.135385 435.2 324.135385 178.806154z" p-id="3487" fill="#8a8a8a"></path><path d="M546.264615 725.464615c0 132.292923 106.732308 239.458462 238.670769 239.458462S1024 857.757538 1024 725.464615c0-131.938462-107.165538-239.064615-239.064615-239.064615S546.264615 593.526154 546.264615 725.464615zM948.775385 647.089231c8.704 5.553231 10.633846 16.935385 5.159385 25.6L738.461538 882.215385c-5.553231 8.231385-13.784615 13.390769-22.094769 13.390769-8.625231 0-17.683692-4.726154-23.630769-10.633846l-106.299077-105.984c-7.128615-7.443692-7.128615-18.865231 0-26.387692l26.387692-25.954462c7.089231-7.483077 18.865231-7.483077 25.993846 0l68.923077 68.923077 184.674462-164.667077c5.907692-8.231385 17.289846-10.633846 25.993846-4.686769L948.775385 647.089231z" p-id="3488" fill="#8a8a8a"></path></svg>