<?xml version="1.0" standalone="no"?><!DOCTYPE svg PUBLIC "-//W3C//DTD SVG 1.1//EN" "http://www.w3.org/Graphics/SVG/1.1/DTD/svg11.dtd"><svg t="1506676340190" class="icon" style="" viewBox="0 0 1024 1024" version="1.1" xmlns="http://www.w3.org/2000/svg" p-id="6810" xmlns:xlink="http://www.w3.org/1999/xlink" width="32" height="32"><defs><style type="text/css"></style></defs><path d="M128 896 768 896 768 960 128 960 128 896 128 896ZM64 192 128 192 128 960 64 960 64 192 64 192ZM704 64 256 64C192 64 192 129.6 192 129.6L192 768C192 832 256 832 256 832L832 832C896 832 896 768 896 768L896 256 704 64 704 64ZM320 512 768 512 768 576 320 576 320 512 320 512ZM320 384 768 384 768 448 320 448 320 384 320 384ZM320 640 768 640 768 704 320 704 320 640 320 640ZM704 256 704 128 832 256 704 256 704 256Z" p-id="6811" fill="#5f5f5f"></path></svg>