<?xml version="1.0" standalone="no"?><!DOCTYPE svg PUBLIC "-//W3C//DTD SVG 1.1//EN" "http://www.w3.org/Graphics/SVG/1.1/DTD/svg11.dtd"><svg t="1505120979795" class="icon" style="" viewBox="0 0 1025 1024" version="1.1" xmlns="http://www.w3.org/2000/svg" p-id="7588" xmlns:xlink="http://www.w3.org/1999/xlink" width="32" height="32"><defs><style type="text/css"></style></defs><path d="M532.515203 333.954601c-11.328543-11.328543-29.695724-11.328543-41.024267 0l-157.533266 157.533266c-11.328543 11.328543-11.328543 29.695724 0 41.024267l157.533266 157.533266c11.328543 11.328543 29.695724 11.328543 41.024267 0l157.533266-157.533266c11.328543-11.328543 11.328543-29.695724 0-41.024267L532.515203 333.954601zM863.182787 163.672374l-45.441068 45.441068-0.499397-2.349624c-78.542518-76.108979-186.31718-123.0728-305.239251-123.0728-240.314522 0-435.127598 191.760407-435.127598 428.308981 0 236.548574 194.813076 428.308981 435.127598 428.308981 118.921048 0 226.694686-46.963821 305.237205-123.070753l-86.859327-86.859327c-27.990814 26.801675-60.327817 47.965686-96.206654 62.903603-38.610172 16.074865-79.71426 24.224866-122.171224 24.224866s-83.561053-8.151025-122.171224-24.224866c-37.230689-15.500763-70.661659-37.685058-99.363705-65.937851-58.546156-57.62923-90.789011-134.105593-90.789011-215.342606 0-81.237013 32.242855-157.713377 90.789011-215.342606 28.703069-28.252793 62.133016-50.438112 99.363705-65.938875 38.610172-16.074865 79.71426-24.224866 122.171224-24.224866s83.561053 8.150001 122.171224 24.224866c35.87986 14.93894 68.217887 36.101928 96.207677 62.904626l2.123462 0.725559-47.351672 47.351672c-10.416733 10.416733-3.039365 28.227209 11.691834 28.227209l178.029026 0c9.132423 0 16.534351-7.402952 16.534351-16.535375l0-178.029026C891.409996 160.633009 873.59952 153.255641 863.182787 163.672374z" fill="#5f5f5f" p-id="7589"></path></svg>