<?xml version="1.0" standalone="no"?><!DOCTYPE svg PUBLIC "-//W3C//DTD SVG 1.1//EN" "http://www.w3.org/Graphics/SVG/1.1/DTD/svg11.dtd"><svg t="1505120782752" class="icon" style="" viewBox="0 0 1000 1000" version="1.1" xmlns="http://www.w3.org/2000/svg" p-id="1740" xmlns:xlink="http://www.w3.org/1999/xlink" width="32" height="32"><defs><style type="text/css"></style></defs><path d="M916.3753 543.6224H673.1711899520006c14.5108 18.6374 21.0956 34.6265 19.7974 47.9965-0.1899 1.8697-0.5207 3.6975-1.0094 5.4673-4.2173 15.1597-18.1374 22.3249-41.7634 21.4854-14.3409 0-32.909 0.4197-55.6855 1.2691-22.7845 0.8294-41.7624 1.2591-56.9527 1.2591-16.8693 0.8504-27.2027 6.1169-31.0102 15.8003-1.7489 4.487-3.107 9.7434-4.0474 15.7683h413.876360758197c19.3277 0 34.9987-15.6594 34.9987-34.9863v-39.07350816146653C951.374 559.2918 935.703 543.6224 916.3753 543.6224zM916.3753 772.5672l-415.3654 0.01c0.1099 11.752 0.2708 23.615 0.4797 35.5859 0.2598 14.74 0.4297 29.2901 0.5297 43.6994 0.06 8.6641 0.0999 17.2893 0.0999 25.8225v3.9373304899278287l414.2561-0.01c19.3277 0 34.9987-15.6594 34.9987-34.9863v-39.06451425933217C951.374 788.2366 935.703 772.5672 916.3753 772.5672zM916.3753 85.7329H113.92742822821863c-19.3167 0-34.9877 15.6594-34.9877 34.9863v39.07350816146653c0 19.3169 15.671 34.9863 34.9877 34.9863h802.4488400888634c19.3277 0 34.9987-15.6694 34.9987-34.9863v-39.07350816146653C951.374 101.3923 935.703 85.7329 916.3753 85.7329zM916.3753 314.6776H500.9409006462883l12.4621 16.6987c11.2528 15.1197 22.6756 30.5793 34.2782 46.4085l33.9084 45.9389h334.78674084608105c19.3277 0 34.9987-15.6694 34.9987-34.9863v-39.07350816146653C951.374 330.347 935.703 314.6776 916.3753 314.6776zM525.1964 528.8904c3.0611-10.9965-2.1296-24.7432-15.5781-41.243-12.2212-15.2736-26.1224-33.3004-41.7064-54.0723-15.5771-20.7749-31.3141-42.0085-47.2009-63.6958-15.8859-21.6913-31.3141-42.4692-46.2825-62.3247-14.9715-19.8565-28.262-36.813-39.8706-50.8655-11.6106-13.4429-22.4587-19.8615-32.5363-19.2479-10.0826 0.6096-20.6229 7.9436-31.6239 21.9961-12.2222 15.2736-26.1224 33.4513-41.7004 54.533-15.5841 21.0797-31.6239 42.769-48.1183 65.0739-16.5025 22.2999-32.3894 43.8393-47.6636 64.6122s-28.7167 38.4909-40.3263 53.156c-11.001 14.0545-14.2099 25.5117-9.6279 34.3697 4.5831 8.859 15.1284 13.29 31.6229 13.29 10.3874 0 22.1489 0.3068 35.2895 0.9194 13.1356 0.6066 24.2865 0.9174 33.4527 0.9174 12.8308-0.6126 21.0786 4.425 24.7502 15.1207 3.6647 10.6918 5.4945 25.2039 5.4945 43.5345v43.07479528879419c0 15.8872 0.1569 76.743 0.4617 92.6282 0.3028 15.8892 0.4557 30.8561 0.4557 44.9106v35.7437657268372c0 20.7729 3.5148 35.8997 10.5393 45.3672 7.0315 9.4686 20.6229 14.2054 40.788 14.2054 14.6667 0 27.3446-0.1539 38.0368-0.4587 10.6962-0.3028 22.4587-0.4567 35.2895-0.4567 11 0 19.7034-1.8348 26.1224-5.5003 6.4119-3.6615 11.3048-8.2464 14.6657-13.7467 3.3599-5.5003 5.4945-11.6091 6.4119-18.3316 0.9184-6.7204 1.3741-13.1371 1.3741-19.247v-45.825930019446815c0-16.4928-0.1509-33.2994-0.4557-50.4068-0.3058-17.1074-0.4567-78.8825-0.4567-95.3783v-44.90855200174282c0-12.2217 1.3741-21.8422 4.1204-28.8674 2.7532-7.0262 10.2365-10.8446 22.4587-11.4572 10.994 0 24.7432-0.3108 41.2447-0.9174 16.4945-0.6126 29.9399-0.9194 40.3273-0.9194C512.0618 545.0824 522.1444 539.889 525.1964 528.8904z" fill="#5f5f5f" p-id="1741"></path></svg>